<?xml version="1.0" standalone="no"?>
<!DOCTYPE svg PUBLIC "-//W3C//DTD SVG 20010904//EN"
 "http://www.w3.org/TR/2001/REC-SVG-20010904/DTD/svg10.dtd">
<svg version="1.0" xmlns="http://www.w3.org/2000/svg"
 width="39.000000pt" height="37.000000pt" viewBox="0 0 39.000000 37.000000"
 preserveAspectRatio="xMidYMid meet">
<metadata>
Created by potrace 1.10, written by Peter Selinger 2001-2011
</metadata>
<g transform="translate(0.000000,37.000000) scale(0.100000,-0.100000)"
fill="#000000" stroke="none">
<path d="M120 348 c0 -4 6 -10 12 -14 9 -6 5 -10 -12 -14 -37 -9 -35 -32 6
-74 20 -20 33 -40 30 -44 -4 -3 -11 0 -16 8 -6 8 -10 10 -10 4 0 -18 41 -65
51 -58 5 3 9 2 8 -3 -3 -20 2 -34 11 -28 6 3 10 0 10 -7 0 -10 3 -9 9 2 6 8 8
17 6 20 -2 3 6 7 17 7 12 1 24 6 27 10 3 4 12 9 20 11 10 2 12 -4 7 -22 -3
-14 -2 -27 3 -30 11 -7 21 39 12 53 -4 6 -16 9 -26 6 -11 -2 -34 -7 -50 -10
-24 -5 -35 -2 -50 16 -11 12 -14 19 -7 15 26 -16 11 24 -18 44 -38 27 -42 65
-6 56 29 -7 46 12 24 28 -8 6 -13 17 -11 23 3 9 -4 12 -21 11 -14 -1 -26 -6
-26 -10z"/>
<path d="M286 341 c-8 -12 4 -41 16 -41 6 0 5 -8 -3 -17 -7 -10 0 -6 16 9 25
24 27 28 12 42 -18 18 -33 20 -41 7z"/>
<path d="M42 318 c-15 -15 -15 -68 -1 -88 8 -11 12 -12 16 -2 2 6 12 12 20 12
12 0 15 -8 10 -39 -4 -34 -1 -43 24 -67 16 -15 29 -24 29 -18 0 5 4 3 9 -5 5
-8 8 -23 6 -33 -2 -10 0 -16 4 -13 5 2 11 17 14 32 4 22 -1 35 -24 59 -17 17
-32 43 -33 58 -2 15 -14 38 -27 52 -20 21 -21 28 -11 44 10 17 10 20 -6 20
-10 0 -23 -5 -30 -12z"/>
<path d="M328 277 c-14 -12 -28 -29 -31 -37 -4 -11 -6 -11 -6 3 -1 10 -5 16
-11 12 -6 -3 -6 -15 0 -29 5 -13 7 -26 4 -28 -2 -3 3 -5 11 -5 13 0 21 30 16
60 -1 4 10 13 24 19 14 6 25 15 25 20 0 11 -2 11 -32 -15z"/>
<path d="M221 283 l-25 -5 23 -17 23 -17 -28 -34 c-24 -28 -25 -31 -6 -19 12
8 22 17 22 21 0 4 7 5 15 2 8 -4 15 -1 15 6 0 6 -4 9 -9 6 -5 -3 -8 10 -6 29
2 19 3 34 2 34 -1 -1 -13 -4 -26 -6z"/>
</g>
</svg>
